<svg xmlns="http://www.w3.org/2000/svg" viewBox="0 0 24 24" fill="none" stroke="#2e7d32" stroke-width="2" stroke-linecap="round" stroke-linejoin="round">
  <path d="M7 8C6 5 4 5 3 6" />
  <path d="M17 8C18 5 20 5 21 6" />
  
  <path d="M6 10C3 10 2 12 4 13C6 14 6 11 6 10Z" />
  <path d="M18 10C21 10 22 12 20 13C18 14 18 11 18 10Z" />
  
  <path d="M8 8H16V14H8V8Z" />
  
  <rect x="6" y="13" width="12" height="6" rx="3" />
  
  <circle cx="10" cy="16" r="1" fill="#2e7d32" />
  <circle cx="14" cy="16" r="1" fill="#2e7d32" />
</svg>
